<?xml version="1.0" encoding="UTF-8"?>
<svg id="Layer_2" data-name="Layer 2" xmlns="http://www.w3.org/2000/svg" viewBox="0 0 20.26 20.26">
  <defs>
    <style>
      .cls-1 {
        fill: #f9ef5f;
        opacity: 0;
      }

      .cls-1, .cls-2, .cls-3 {
        stroke-width: 0px;
      }

      .cls-2 {
        opacity: .25;
      }

      .cls-2, .cls-3 {
        fill: #4db85a;
      }
    </style>
  </defs>
  <g id="Layer_1-2" data-name="Layer 1">
    <g>
      <rect class="cls-1" width="20.26" height="20.26"/>
      <circle class="cls-2" cx="6.81" cy="10.13" r="6.3"/>
      <g>
        <path class="cls-3" d="M5.42,6.89h1.03l.67,5.03h.02l.67-5.03h.94l-.98,6.49h-1.35l-.98-6.49Z"/>
        <path class="cls-3" d="M9.23,6.89h2.78v.93h-1.76v1.71h1.4v.93h-1.4v1.99h1.76v.93h-2.78v-6.49Z"/>
        <path class="cls-3" d="M12.59,6.89h1.28l.99,3.88h.02v-3.88h.91v6.49h-1.05l-1.22-4.74h-.02v4.74h-.91v-6.49Z"/>
        <path class="cls-3" d="M16.55,6.89h1.28l.99,3.88h.02v-3.88h.91v6.49h-1.05l-1.22-4.74h-.02v4.74h-.91v-6.49Z"/>
      </g>
    </g>
  </g>
</svg>